<svg width="63" height="69" viewBox="0 0 63 69" fill="none" xmlns="http://www.w3.org/2000/svg">
<g id="Group">
<g id="Group_2">
<g id="SvgjsSymbol1000">
<path id="Vector" d="M0 55.4167L15.8333 47.5L31.6667 55.4167L15.8333 63.3333L0 55.4167Z" fill="#ADCF9F"/>
</g>
<g id="SvgjsSymbol1001">
<path id="Vector_2" d="M0 55.417L15.8333 63.3337V79.167L0 71.2503V55.417Z" fill="#CED89E"/>
</g>
<g id="SvgjsSymbol1002">
<path id="Vector_3" d="M15.834 63.3337L31.6673 55.417V71.2503L15.834 79.167V63.3337Z" fill="#76BA99"/>
</g>
</g>
<g id="Group_3">
<g id="SvgjsSymbol1000_2">
<path id="Vector_4" d="M31.666 55.4167L47.4993 47.5L63.3327 55.4167L47.4993 63.3333L31.666 55.4167Z" fill="#ADCF9F"/>
</g>
<g id="SvgjsSymbol1001_2">
<path id="Vector_5" d="M31.666 55.417L47.4993 63.3337V79.167L31.666 71.2503V55.417Z" fill="#CED89E"/>
</g>
<g id="SvgjsSymbol1002_2">
<path id="Vector_6" d="M47.5 63.3337L63.3333 55.417V71.2503L47.5 79.167V63.3337Z" fill="#76BA99"/>
</g>
</g>
<g id="Group_4">
<g id="SvgjsSymbol1000_3">
<path id="Vector_7" d="M15.834 31.6667L31.6673 23.75L47.5007 31.6667L31.6673 39.5833L15.834 31.6667Z" fill="#ADCF9F"/>
</g>
<g id="SvgjsSymbol1001_3">
<path id="Vector_8" d="M15.834 31.667L31.6673 39.5837V55.417L15.834 47.5003V31.667Z" fill="#CED89E"/>
</g>
<g id="SvgjsSymbol1002_3">
<path id="Vector_9" d="M31.668 39.5837L47.5013 31.667V47.5003L31.668 55.417V39.5837Z" fill="#76BA99"/>
</g>
</g>
<g id="Group_5">
<g id="SvgjsSymbol1000_4">
<path id="Vector_10" d="M47.5 31.6667L63.3333 23.75L79.1667 31.6667L63.3333 39.5833L47.5 31.6667Z" fill="#ADCF9F"/>
</g>
<g id="SvgjsSymbol1001_4">
<path id="Vector_11" d="M47.5 31.667L63.3333 39.5837V55.417L47.5 47.5003V31.667Z" fill="#CED89E"/>
</g>
</g>
<g id="Group_6">
<g id="SvgjsSymbol1000_5">
<path id="Vector_12" d="M31.666 7.91667L47.4993 0L63.3327 7.91667L47.4993 15.8333L31.666 7.91667Z" fill="#ADCF9F"/>
</g>
<g id="SvgjsSymbol1001_5">
<path id="Vector_13" d="M31.666 7.91699L47.4993 15.8337V31.667L31.666 23.7503V7.91699Z" fill="#CED89E"/>
</g>
<g id="SvgjsSymbol1002_4">
<path id="Vector_14" d="M47.5 15.8337L63.3333 7.91699V23.7503L47.5 31.667V15.8337Z" fill="#76BA99"/>
</g>
</g>
</g>
</svg>
