<svg width="26" height="26" viewBox="0 0 26 26" fill="rgb(227,61,165)" xmlns="http://www.w3.org/2000/svg"><path id="Vector" d="M26 13C26 5.82062 20.1794 0 13 0C5.82062 0 0 5.82062 0 13C0 20.1794 5.82062 26 13 26C20.1794 26 26 20.1794 26 13ZM12.7094 18.71C12.6161 18.6175 12.542 18.5076 12.4913 18.3864C12.4405 18.2653 12.4141 18.1353 12.4136 18.004C12.4131 17.8726 12.4384 17.7425 12.4882 17.6209C12.538 17.4994 12.6112 17.3889 12.7037 17.2956L15.9737 14H7.625C7.35978 14 7.10543 13.8946 6.91789 13.7071C6.73036 13.5196 6.625 13.2652 6.625 13C6.625 12.7348 6.73036 12.4804 6.91789 12.2929C7.10543 12.1054 7.35978 12 7.625 12H15.9737L12.7037 8.70438C12.6112 8.61105 12.538 8.50043 12.4883 8.37881C12.4385 8.2572 12.4132 8.12698 12.4138 7.99558C12.4144 7.86419 12.4409 7.73419 12.4917 7.61302C12.5425 7.49185 12.6167 7.38188 12.71 7.28938C12.8033 7.19688 12.9139 7.12366 13.0356 7.07392C13.1572 7.02417 13.2874 6.99886 13.4188 6.99944C13.6842 7.00062 13.9382 7.10716 14.125 7.29562L19.0869 12.2956C19.2727 12.4829 19.377 12.7361 19.377 13C19.377 13.2639 19.2727 13.5171 19.0869 13.7044L14.125 18.7044C14.0325 18.7978 13.9225 18.8721 13.8012 18.923C13.6799 18.9738 13.5498 19.0003 13.4184 19.0008C13.2869 19.0013 13.1566 18.9759 13.0349 18.926C12.9132 18.8761 12.8026 18.8027 12.7094 18.71Z" fill="#FFDBD3"></path></svg>